<svg width="29" height="31" viewBox="0 0 29 31" id="icon-tub" xmlns="http://www.w3.org/2000/svg">
  <g fill="#fff">
    <path d="M20.8 18.5c-1.7 0-3.1 1.5-3.1 3.3 0 1.8 1.4 3.3 3 3.3 1.8 0 3.2-1.5 3.2-3.3 0-1.8-1.4-3.3-3.1-3.3Zm0 5c-1 0-1.6-.8-1.6-1.7 0-1 .7-1.7 1.6-1.7.9 0 1.6.7 1.6 1.7s-.7 1.7-1.6 1.7ZM11.6 0C9.8 0 8.4 1.5 8.4 3.4s1.4 3.4 3.2 3.4c1.8 0 3.2-1.5 3.2-3.4S13.4 0 11.6 0Zm0 5.5c-1 0-2-1-2-2.1s1-2 2-2 2 .9 2 2-1 2-2 2ZM8.2 17.6C7 17.6 6 18.7 6 20.1s1 2.5 2.3 2.5c1.3 0 2.4-1.1 2.4-2.5s-1-2.5-2.4-2.5ZM8 19.5c-.5 0 1.2 1.1 1.2.6 0-.5-1.7.4-1.2.4s1-.9 1-.4-.5-.6-1-.6ZM18.5 9.8s3-.9 6.2 1.5c.9.7 1.7 1.3 1.1 2-.3.4-.6.7-1.7-.4a7 7 0 0 0-5.6-1.5c-1.1.2-2 .6-3.6 2.2A8.3 8.3 0 0 1 8.4 16a8.1 8.1 0 0 1-5.2-2.6c-.3-.4-.3-.9-.1-1.1.1-.3.8-.5 1.2-.1.3.3 2 2 3.8 2 1.7.1 3.4.2 5.7-2 2.3-2.1 3.5-2.3 4.7-2.5Z"/>
    <path d="M28.6 26.8V8.2c0-.6-.3-.7-.5-.7h-.5c-.5 0-.5.6-.5.7v18.6c0 .4-.1 1.2-.8 2-.9.6-1.7.5-1.7.5H4c-.4 0-1-.2-1.6-1-.6-.8-.5-1.9-.5-1.9v-18c0-1-.7-.9-.7-.9H1c-.5 0-.5.6-.5.8v18.5c0 1.4.4 2.4 1.5 3.4 1.1.9 2.4.8 2.4.8h20.6c.8 0 2-.4 2.9-1.5.9-1.2.8-2.7.8-2.7Z"/>
  </g>
</svg>
