<svg width="48" height="48" viewBox="0 0 48 48" id="icon-ok" xmlns="http://www.w3.org/2000/svg">
  <circle cx="24" cy="13" r="9.5" stroke-linecap="round" stroke-linejoin="round" stroke-miterlimit="10" stroke-width="2"/>
  <circle cx="24" cy="13" r="3.5" stroke-linecap="round" stroke-linejoin="round" stroke-miterlimit="10" stroke-width="2"/>
  <path fill="none" stroke-linejoin="round" stroke-miterlimit="10" stroke-width="2" d="M35.572,26.495 c-0.854-1.418-2.697-1.877-4.118-1.022c-4.491,2.705-10.417,2.705-14.909,0c-1.42-0.855-3.263-0.396-4.118,1.022 c-0.855,1.419-0.397,3.263,1.022,4.118c1.881,1.133,3.928,1.941,6.054,2.419l-6.242,6.465c-1.101,1.238-0.989,3.135,0.249,4.235 c1.238,1.1,3.134,0.989,4.235-0.249L24,37.006l6.257,6.478c0.593,0.667,1.416,1.007,2.243,1.007c0.709,0,1.42-0.25,1.992-0.758 c1.238-1.101,1.35-2.997,0.249-4.235l-6.246-6.465c2.127-0.478,4.174-1.286,6.055-2.419C35.969,29.758,36.427,27.914,35.572,26.495 z"/>
</svg>
